<svg xmlns="http://www.w3.org/2000/svg" viewBox="0 0 64 64" role="img" aria-label="学习资源库图标">
  <defs>
    <linearGradient id="brandBg" x1="10" y1="8" x2="54" y2="58" gradientUnits="userSpaceOnUse">
      <stop offset="0" stop-color="#6f7bff"/>
      <stop offset="0.5" stop-color="#2f63ff"/>
      <stop offset="1" stop-color="#123fd1"/>
    </linearGradient>
    <linearGradient id="pageGlow" x1="18" y1="18" x2="46" y2="48" gradientUnits="userSpaceOnUse">
      <stop offset="0" stop-color="#ffffff"/>
      <stop offset="1" stop-color="#dbe7ff"/>
    </linearGradient>
    <filter id="softShadow" x="-20%" y="-20%" width="140%" height="140%">
      <feDropShadow dx="0" dy="5" stdDeviation="4" flood-color="#10245f" flood-opacity="0.22"/>
    </filter>
  </defs>
  <rect width="64" height="64" rx="16" fill="url(#brandBg)"/>
  <circle cx="50" cy="13" r="12" fill="#ffffff" opacity="0.1"/>
  <circle cx="12" cy="53" r="14" fill="#00d4ff" opacity="0.14"/>
  <g filter="url(#softShadow)">
    <path d="M14 18.5c0-1.9 1.6-3.3 3.5-3l12.8 2.3c1.7.3 2.9 1.8 2.9 3.5v28.1c0 1.1-1 1.9-2.1 1.7l-14.4-2.6c-1.6-.3-2.7-1.7-2.7-3.3V18.5Z" fill="url(#pageGlow)"/>
    <path d="M50 18.5c0-1.9-1.6-3.3-3.5-3l-12.8 2.3c-1.7.3-2.9 1.8-2.9 3.5v28.1c0 1.1 1 1.9 2.1 1.7l14.4-2.6c1.6-.3 2.7-1.7 2.7-3.3V18.5Z" fill="#eef4ff"/>
    <path d="M31.6 18.4v32.3" stroke="#b7c9ff" stroke-width="1.4" stroke-linecap="round"/>
  </g>
  <path d="M24.6 29.5 20 34l4.6 4.5" fill="none" stroke="#2f63ff" stroke-width="3" stroke-linecap="round" stroke-linejoin="round"/>
  <path d="M39.4 29.5 44 34l-4.6 4.5" fill="none" stroke="#2f63ff" stroke-width="3" stroke-linecap="round" stroke-linejoin="round"/>
  <path d="M34.9 27.4 29.1 40.6" fill="none" stroke="#18c7b8" stroke-width="3" stroke-linecap="round"/>
  <path d="M19.8 23.5h7.7M36.5 23.5h7.7" stroke="#8aa5ff" stroke-width="2" stroke-linecap="round" opacity="0.75"/>
</svg>
